<svg id="close-icon" xmlns="http://www.w3.org/2000/svg" xmlns:xlink="http://www.w3.org/1999/xlink" width="16" height="16" viewBox="0 0 16 16">
  <defs>
    <clipPath id="clip-path">
      <rect id="icon_clip_mask_" data-name="icon (clip mask)" width="16" height="16" fill="none"/>
    </clipPath>
  </defs>
  <rect id="icon_clip_mask_2" data-name="icon (clip mask)" width="16" height="16" fill="none"/>
  <g id="icon" clip-path="url(#clip-path)">
    <g id="icon_clip_group_" data-name="icon (clip group)" transform="translate(-4 -4)">
      <g id="icons_Close_Line" data-name="icons/Close/Line">
        <path id="Shape" d="M.293.293a1,1,0,0,1,1.414,0L7,5.586,12.293.293a1,1,0,1,1,1.414,1.414L8.414,7l5.293,5.293a1,1,0,1,1-1.414,1.414L7,8.414,1.707,13.707A1,1,0,1,1,.293,12.293L5.586,7,.293,1.707A1,1,0,0,1,.293.293Z" transform="translate(5 5)" fill="#777e90"/>
      </g>
    </g>
  </g>
</svg>
