<svg width="32" height="32" viewBox="0 0 32 32" fill="none" xmlns="http://www.w3.org/2000/svg">
<rect x="0.5" y="0.5" width="31" height="31" rx="7.5" fill="white" stroke="#E6E9ED"/>
<rect x="17" y="8" width="11" height="3" rx="1.5" fill="url(#paint0_radial_2426_7736)"/>
<rect x="17" y="13" width="11" height="3" rx="1.5" fill="url(#paint1_radial_2426_7736)"/>
<rect x="17" y="18" width="11" height="3" rx="1.5" fill="url(#paint2_radial_2426_7736)"/>
<rect x="4" y="23" width="24" height="3" rx="1.5" fill="url(#paint3_radial_2426_7736)"/>
<path d="M4 17.4912C4 19.4836 6.51788 20 9.5 20C12.4663 20 15 19.5019 15 17.5088C15 15.5164 12.4828 15 9.5 15C6.5337 15 4 15.4981 4 17.4912Z" fill="url(#paint4_radial_2426_7736)"/>
<path d="M9.5 14C11.4431 14 13 12.4423 13 10.4997C13 8.55703 11.4431 7 9.5 7C7.55754 7 6 8.55703 6 10.4997C6 12.4423 7.55754 14 9.5 14Z" fill="url(#paint5_radial_2426_7736)"/>
<defs>
<radialGradient id="paint0_radial_2426_7736" cx="0" cy="0" r="1" gradientUnits="userSpaceOnUse" gradientTransform="translate(22.5 9.5) rotate(90) scale(1.5 5.5)">
<stop stop-color="#878D9C"/>
<stop offset="1" stop-color="#6A7287"/>
</radialGradient>
<radialGradient id="paint1_radial_2426_7736" cx="0" cy="0" r="1" gradientUnits="userSpaceOnUse" gradientTransform="translate(22.5 14.5) rotate(90) scale(1.5 5.5)">
<stop stop-color="#878D9C"/>
<stop offset="1" stop-color="#6A7287"/>
</radialGradient>
<radialGradient id="paint2_radial_2426_7736" cx="0" cy="0" r="1" gradientUnits="userSpaceOnUse" gradientTransform="translate(22.5 19.5) rotate(90) scale(1.5 5.5)">
<stop stop-color="#878D9C"/>
<stop offset="1" stop-color="#6A7287"/>
</radialGradient>
<radialGradient id="paint3_radial_2426_7736" cx="0" cy="0" r="1" gradientUnits="userSpaceOnUse" gradientTransform="translate(16 24.5) rotate(90) scale(1.5 12)">
<stop stop-color="#878D9C"/>
<stop offset="1" stop-color="#6A7287"/>
</radialGradient>
<radialGradient id="paint4_radial_2426_7736" cx="0" cy="0" r="1" gradientUnits="userSpaceOnUse" gradientTransform="translate(9.5 17.5) rotate(90) scale(2.5 5.5)">
<stop stop-color="#878D9C"/>
<stop offset="1" stop-color="#6A7287"/>
</radialGradient>
<radialGradient id="paint5_radial_2426_7736" cx="0" cy="0" r="1" gradientUnits="userSpaceOnUse" gradientTransform="translate(9.5 10.5) rotate(90) scale(3.5)">
<stop stop-color="#878D9C"/>
<stop offset="1" stop-color="#6A7287"/>
</radialGradient>
</defs>
</svg>
