<svg width="208" height="203" viewBox="0 0 208 203" fill="none" xmlns="http://www.w3.org/2000/svg">
<path d="M104.15 197.636C154.603 197.636 195.503 156.736 195.503 106.283C195.503 55.8299 154.603 14.9297 104.15 14.9297C53.6971 14.9297 12.7969 55.8299 12.7969 106.283C12.7969 156.736 53.6971 197.636 104.15 197.636Z" fill="url(#paint0_linear_6896_196151)"/>
<path d="M153.434 36.1875H52.234C45.9261 36.1875 40.8125 41.3011 40.8125 47.609H164.856C164.856 41.3011 159.742 36.1875 153.434 36.1875Z" fill="#4D4DBE"/>
<path d="M40.8125 47.2969H164.856V141.77C164.856 145.97 163.187 149.999 160.217 152.969C157.247 155.939 153.219 157.608 149.018 157.608H56.6499C52.4496 157.608 48.4213 155.939 45.4512 152.969C42.4811 149.999 40.8125 145.97 40.8125 141.77V47.2969Z" fill="white"/>
<path d="M143.536 59.2266H62.1773C60.4829 59.2266 59.1094 60.5986 59.1094 62.2911C59.1094 63.9836 60.4829 65.3557 62.1773 65.3557H143.536C145.23 65.3557 146.604 63.9836 146.604 62.2911C146.604 60.5986 145.23 59.2266 143.536 59.2266Z" fill="url(#paint1_linear_6896_196151)"/>
<path d="M143.536 85.2656H62.1773C60.4829 85.2656 59.1094 86.6377 59.1094 88.3302C59.1094 90.0227 60.4829 91.3947 62.1773 91.3947H143.536C145.23 91.3947 146.604 90.0227 146.604 88.3302C146.604 86.6377 145.23 85.2656 143.536 85.2656Z" fill="url(#paint2_linear_6896_196151)"/>
<path d="M143.536 111.312H62.1773C60.4829 111.312 59.1094 112.685 59.1094 114.377C59.1094 116.07 60.4829 117.442 62.1773 117.442H143.536C145.23 117.442 146.604 116.07 146.604 114.377C146.604 112.685 145.23 111.312 143.536 111.312Z" fill="url(#paint3_linear_6896_196151)"/>
<path d="M143.536 137.352H62.1773C60.4829 137.352 59.1094 138.724 59.1094 140.416C59.1094 142.109 60.4829 143.481 62.1773 143.481H143.536C145.23 143.481 146.604 142.109 146.604 140.416C146.604 138.724 145.23 137.352 143.536 137.352Z" fill="url(#paint4_linear_6896_196151)"/>
<g filter="url(#filter0_d_6896_196151)">
<path d="M61.6239 105.727H18.3018C14.8214 105.727 12 108.548 12 112.028V173.95C12 177.431 14.8214 180.252 18.3018 180.252H61.6239C65.1042 180.252 67.9256 177.431 67.9256 173.95V112.028C67.9256 108.548 65.1042 105.727 61.6239 105.727Z" fill="url(#paint5_linear_6896_196151)"/>
</g>
<g filter="url(#filter1_d_6896_196151)">
<path d="M184.951 9H137.1C134.87 9 133.062 10.8076 133.062 13.0374V35.5285C133.062 37.7583 134.87 39.5659 137.1 39.5659H184.951C187.181 39.5659 188.988 37.7583 188.988 35.5285V13.0374C188.988 10.8076 187.181 9 184.951 9Z" fill="url(#paint6_linear_6896_196151)"/>
</g>
<path d="M56.7915 136.695H23.1378C22.0046 136.695 21.0859 137.614 21.0859 138.747V138.754C21.0859 139.887 22.0046 140.806 23.1378 140.806H56.7915C57.9247 140.806 58.8434 139.887 58.8434 138.754V138.747C58.8434 137.614 57.9247 136.695 56.7915 136.695Z" fill="url(#paint7_linear_6896_196151)"/>
<path d="M56.8049 165.625H23.4405C22.317 165.625 21.4062 166.515 21.4062 167.613V167.619C21.4062 168.717 22.317 169.607 23.4405 169.607H56.8049C57.9284 169.607 58.8392 168.717 58.8392 167.619V167.613C58.8392 166.515 57.9284 165.625 56.8049 165.625Z" fill="url(#paint8_linear_6896_196151)"/>
<path d="M56.8049 150.492H23.4405C22.317 150.492 21.4062 151.382 21.4062 152.48V152.487C21.4062 153.584 22.317 154.474 23.4405 154.474H56.8049C57.9284 154.474 58.8392 153.584 58.8392 152.487V152.48C58.8392 151.382 57.9284 150.492 56.8049 150.492Z" fill="url(#paint9_linear_6896_196151)"/>
<path d="M35.4351 115.289H25.6007C23.4222 115.289 21.6562 117.055 21.6562 119.233V121.963C21.6562 124.141 23.4222 125.907 25.6007 125.907H35.4351C37.6136 125.907 39.3795 124.141 39.3795 121.963V119.233C39.3795 117.055 37.6136 115.289 35.4351 115.289Z" fill="url(#paint10_linear_6896_196151)"/>
<path d="M144.868 28.9239C147.432 28.9239 149.51 26.8458 149.51 24.2823C149.51 21.7188 147.432 19.6406 144.868 19.6406C142.305 19.6406 140.227 21.7188 140.227 24.2823C140.227 26.8458 142.305 28.9239 144.868 28.9239Z" fill="#4D4DBE"/>
<path d="M161.454 28.9239C164.018 28.9239 166.096 26.8458 166.096 24.2823C166.096 21.7188 164.018 19.6406 161.454 19.6406C158.891 19.6406 156.812 21.7188 156.812 24.2823C156.812 26.8458 158.891 28.9239 161.454 28.9239Z" fill="#4D4DBE"/>
<path d="M178.04 28.9239C180.604 28.9239 182.682 26.8458 182.682 24.2823C182.682 21.7188 180.604 19.6406 178.04 19.6406C175.477 19.6406 173.398 21.7188 173.398 24.2823C173.398 26.8458 175.477 28.9239 178.04 28.9239Z" fill="#4D4DBE"/>
<path d="M165.459 139.626L153.703 152.586L186.839 182.642L198.595 169.682L165.459 139.626Z" fill="#4D4DBE"/>
<path fill-rule="evenodd" clip-rule="evenodd" d="M177.881 118.186C177.881 145.3 155.901 167.279 128.788 167.279C101.675 167.279 79.6953 145.3 79.6953 118.186C79.6953 91.0733 101.675 69.0938 128.788 69.0938C155.901 69.0938 177.881 91.0733 177.881 118.186ZM170.351 118.183C170.351 141.138 151.743 159.746 128.789 159.746C105.835 159.746 87.2266 141.138 87.2266 118.183C87.2266 95.2292 105.835 76.6211 128.789 76.6211C151.743 76.6211 170.351 95.2292 170.351 118.183Z" fill="#4D4DBE"/>
<g filter="url(#filter2_b_6896_196151)">
<path d="M128.789 159.742C151.743 159.742 170.351 141.134 170.351 118.18C170.351 95.2253 151.743 76.6172 128.789 76.6172C105.835 76.6172 87.2266 95.2253 87.2266 118.18C87.2266 141.134 105.835 159.742 128.789 159.742Z" fill="url(#paint11_linear_6896_196151)" fill-opacity="0.2"/>
</g>
<g filter="url(#filter3_f_6896_196151)">
<ellipse cx="130.163" cy="141.137" rx="29.2179" ry="4.31627" fill="#EC5575" fill-opacity="0.56"/>
</g>
<path d="M186.836 182.648L198.592 169.688L200.362 171.294C202.08 172.853 203.109 175.03 203.222 177.346C203.335 179.663 202.523 181.93 200.964 183.648C199.406 185.366 197.229 186.394 194.912 186.507C192.596 186.62 190.329 185.808 188.611 184.25L186.84 182.644L186.836 182.648Z" fill="#4D4DBE"/>
<defs>
<filter id="filter0_d_6896_196151" x="0" y="97.7266" width="85.9219" height="104.523" filterUnits="userSpaceOnUse" color-interpolation-filters="sRGB">
<feFlood flood-opacity="0" result="BackgroundImageFix"/>
<feColorMatrix in="SourceAlpha" type="matrix" values="0 0 0 0 0 0 0 0 0 0 0 0 0 0 0 0 0 0 127 0" result="hardAlpha"/>
<feOffset dx="3" dy="7"/>
<feGaussianBlur stdDeviation="7.5"/>
<feComposite in2="hardAlpha" operator="out"/>
<feColorMatrix type="matrix" values="0 0 0 0 0.104618 0 0 0 0 0.465612 0 0 0 0 0.545833 0 0 0 0.15 0"/>
<feBlend mode="normal" in2="BackgroundImageFix" result="effect1_dropShadow_6896_196151"/>
<feBlend mode="normal" in="SourceGraphic" in2="effect1_dropShadow_6896_196151" result="shape"/>
</filter>
<filter id="filter1_d_6896_196151" x="126.062" y="0" width="81.9219" height="56.5625" filterUnits="userSpaceOnUse" color-interpolation-filters="sRGB">
<feFlood flood-opacity="0" result="BackgroundImageFix"/>
<feColorMatrix in="SourceAlpha" type="matrix" values="0 0 0 0 0 0 0 0 0 0 0 0 0 0 0 0 0 0 127 0" result="hardAlpha"/>
<feOffset dx="6" dy="4"/>
<feGaussianBlur stdDeviation="6.5"/>
<feComposite in2="hardAlpha" operator="out"/>
<feColorMatrix type="matrix" values="0 0 0 0 0.104618 0 0 0 0 0.465612 0 0 0 0 0.545833 0 0 0 0.09 0"/>
<feBlend mode="normal" in2="BackgroundImageFix" result="effect1_dropShadow_6896_196151"/>
<feBlend mode="normal" in="SourceGraphic" in2="effect1_dropShadow_6896_196151" result="shape"/>
</filter>
<filter id="filter2_b_6896_196151" x="70.5514" y="59.942" width="116.475" height="116.475" filterUnits="userSpaceOnUse" color-interpolation-filters="sRGB">
<feFlood flood-opacity="0" result="BackgroundImageFix"/>
<feGaussianBlur in="BackgroundImageFix" stdDeviation="8.33757"/>
<feComposite in2="SourceAlpha" operator="in" result="effect1_backgroundBlur_6896_196151"/>
<feBlend mode="normal" in="SourceGraphic" in2="effect1_backgroundBlur_6896_196151" result="shape"/>
</filter>
<filter id="filter3_f_6896_196151" x="80.1014" y="115.976" width="100.125" height="50.3207" filterUnits="userSpaceOnUse" color-interpolation-filters="sRGB">
<feFlood flood-opacity="0" result="BackgroundImageFix"/>
<feBlend mode="normal" in="SourceGraphic" in2="BackgroundImageFix" result="shape"/>
<feGaussianBlur stdDeviation="10.422" result="effect1_foregroundBlur_6896_196151"/>
</filter>
<linearGradient id="paint0_linear_6896_196151" x1="103.446" y1="-14.8171" x2="105.317" y2="306.001" gradientUnits="userSpaceOnUse">
<stop stop-color="white" stop-opacity="0"/>
<stop offset="1" stop-color="#4D4DBE"/>
</linearGradient>
<linearGradient id="paint1_linear_6896_196151" x1="55.4089" y1="65.1029" x2="151.779" y2="65.1029" gradientUnits="userSpaceOnUse">
<stop stop-color="#4D4DBE"/>
<stop offset="1" stop-color="#CACAFF"/>
</linearGradient>
<linearGradient id="paint2_linear_6896_196151" x1="55.4089" y1="91.142" x2="151.779" y2="91.142" gradientUnits="userSpaceOnUse">
<stop stop-color="#4D4DBE"/>
<stop offset="1" stop-color="#CACAFF"/>
</linearGradient>
<linearGradient id="paint3_linear_6896_196151" x1="55.4089" y1="117.189" x2="151.779" y2="117.189" gradientUnits="userSpaceOnUse">
<stop stop-color="#4D4DBE"/>
<stop offset="1" stop-color="#CACAFF"/>
</linearGradient>
<linearGradient id="paint4_linear_6896_196151" x1="55.4089" y1="143.228" x2="151.779" y2="143.228" gradientUnits="userSpaceOnUse">
<stop stop-color="#4D4DBE"/>
<stop offset="1" stop-color="#CACAFF"/>
</linearGradient>
<linearGradient id="paint5_linear_6896_196151" x1="10.3208" y1="161.612" x2="117.512" y2="170.415" gradientUnits="userSpaceOnUse">
<stop stop-color="white"/>
<stop offset="1" stop-color="#CACAFF"/>
</linearGradient>
<linearGradient id="paint6_linear_6896_196151" x1="131.383" y1="31.9207" x2="212.135" y2="34.2565" gradientUnits="userSpaceOnUse">
<stop stop-color="white"/>
<stop offset="1" stop-color="#CACAFF"/>
</linearGradient>
<linearGradient id="paint7_linear_6896_196151" x1="63.2252" y1="140.928" x2="17.8278" y2="140.928" gradientUnits="userSpaceOnUse">
<stop stop-color="#CACAFF"/>
<stop offset="1" stop-color="#4D4DBE"/>
</linearGradient>
<linearGradient id="paint8_linear_6896_196151" x1="63.1834" y1="169.726" x2="18.1761" y2="169.726" gradientUnits="userSpaceOnUse">
<stop stop-color="#CACAFF"/>
<stop offset="1" stop-color="#4D4DBE"/>
</linearGradient>
<linearGradient id="paint9_linear_6896_196151" x1="63.1834" y1="154.593" x2="18.1761" y2="154.593" gradientUnits="userSpaceOnUse">
<stop stop-color="#CACAFF"/>
<stop offset="1" stop-color="#4D4DBE"/>
</linearGradient>
<linearGradient id="paint10_linear_6896_196151" x1="51.6693" y1="125.805" x2="19.4132" y2="125.805" gradientUnits="userSpaceOnUse">
<stop offset="0.243799" stop-color="#CACAFF"/>
<stop offset="1" stop-color="#4D4DBE"/>
</linearGradient>
<linearGradient id="paint11_linear_6896_196151" x1="128.789" y1="76.6172" x2="170.67" y2="185.294" gradientUnits="userSpaceOnUse">
<stop stop-color="white"/>
<stop offset="1" stop-color="#D2F7FF"/>
<stop offset="1" stop-color="#CACAFF"/>
</linearGradient>
</defs>
</svg>
