<svg id="rubbish-bin" xmlns="http://www.w3.org/2000/svg" width="10.5" height="14" viewBox="0 0 10.5 14">
  <g id="Group_7149" data-name="Group 7149">
    <path id="Path_19286" data-name="Path 19286" d="M74.516,109.384a.707.707,0,0,0,.708.675h6.619a.707.707,0,0,0,.708-.675l.473-9.916H74.043Zm5.515-7.453a.287.287,0,0,1,.288-.286h.461a.287.287,0,0,1,.288.286V107.6a.287.287,0,0,1-.288.286h-.461a.287.287,0,0,1-.288-.286Zm-2.015,0a.287.287,0,0,1,.288-.286h.461a.287.287,0,0,1,.288.286V107.6a.287.287,0,0,1-.288.286H78.3a.287.287,0,0,1-.288-.286v-5.665Zm-2.016,0a.287.287,0,0,1,.288-.286h.461a.287.287,0,0,1,.288.286V107.6a.287.287,0,0,1-.288.286h-.461A.287.287,0,0,1,76,107.6Z" transform="translate(-73.283 -96.059)" fill="#fff"/>
    <path id="Path_19287" data-name="Path 19287" d="M62.071.721H59.018V.148A.148.148,0,0,0,58.869,0H55.663a.148.148,0,0,0-.148.148V.721H52.461a.444.444,0,0,0-.445.442V2.552h10.5V1.163A.444.444,0,0,0,62.071.721Z" transform="translate(-52.016)" fill="#fff"/>
  </g>
</svg>
