<svg width="528" height="356" viewBox="0 0 528 356" fill="none" xmlns="http://www.w3.org/2000/svg">
<g filter="url(#filter0_d_1461_79745)">
<path d="M426.879 26V24.5H423.311L425.808 27.0494L426.879 26ZM501.669 102.384L500.597 103.433L503.169 106.06V102.384H501.669ZM499.669 100.341H498.169V100.953L498.597 101.39L499.669 100.341ZM428.838 28L427.766 29.0494L428.207 29.5H428.838V28ZM499.669 256.466L498.603 255.411L498.169 255.85V256.466H499.669ZM501.669 254.444H503.169V250.794L500.603 253.389L501.669 254.444ZM428.927 327.999V326.499H428.301L427.861 326.944L428.927 327.999ZM426.949 329.999L425.883 328.944L423.356 331.499H426.949V329.999ZM98.8354 328L99.9027 326.946L99.4622 326.5H98.8354V328ZM100.811 330V331.5H104.401L101.878 328.946L100.811 330ZM28.0337 256.316H29.5337V255.7L29.1009 255.262L28.0337 256.316ZM26.0337 254.291L27.1009 253.237L24.5337 250.638V254.291H26.0337ZM26.0337 102.219H24.5337V105.871L27.1007 103.274L26.0337 102.219ZM101.347 26L102.414 27.0543L104.938 24.5H101.347V26ZM99.3708 28V29.5H99.9974L100.438 29.0543L99.3708 28ZM28.0337 100.195L29.1007 101.249L29.5337 100.811V100.195H28.0337ZM426.879 27.5H484.682V24.5H426.879V27.5ZM484.682 27.5C493.212 27.5 500.169 34.538 500.169 43.2727H503.169C503.169 32.9285 494.916 24.5 484.682 24.5V27.5ZM500.169 43.2727V102.384H503.169V43.2727H500.169ZM502.741 101.334L500.741 99.2916L498.597 101.39L500.597 103.433L502.741 101.334ZM498.169 43.2727V100.341H501.169V43.2727H498.169ZM484.682 29.5C492.077 29.5 498.169 35.6119 498.169 43.2727H501.169C501.169 34.0005 493.779 26.5 484.682 26.5V29.5ZM428.838 29.5H484.682V26.5H428.838V29.5ZM429.91 26.9506L427.951 24.9506L425.808 27.0494L427.766 29.0494L429.91 26.9506ZM500.736 257.521L502.736 255.498L500.603 253.389L498.603 255.411L500.736 257.521ZM498.169 256.466V312.726H501.169V256.466H498.169ZM498.169 312.726C498.169 320.387 492.077 326.499 484.682 326.499V329.499C493.779 329.499 501.169 321.998 501.169 312.726H498.169ZM484.682 326.499H428.927V329.499H484.682V326.499ZM428.016 331.053L429.994 329.053L427.861 326.944L425.883 328.944L428.016 331.053ZM484.682 328.499H426.949V331.499H484.682V328.499ZM500.169 312.726C500.169 321.461 493.212 328.499 484.682 328.499V331.499C494.916 331.499 503.169 323.07 503.169 312.726H500.169ZM500.169 254.444V312.726H503.169V254.444H500.169ZM97.7682 329.054L99.7436 331.054L101.878 328.946L99.9027 326.946L97.7682 329.054ZM98.8354 326.5H43.0207V329.5H98.8354V326.5ZM43.0207 326.5C35.6259 326.5 29.5337 320.388 29.5337 312.727H26.5337C26.5337 321.999 33.9239 329.5 43.0207 329.5V326.5ZM29.5337 312.727V256.316H26.5337V312.727H29.5337ZM24.9665 255.345L26.9665 257.37L29.1009 255.262L27.1009 253.237L24.9665 255.345ZM27.5337 312.727V254.291H24.5337V312.727H27.5337ZM43.0207 328.5C34.4909 328.5 27.5337 321.462 27.5337 312.727H24.5337C24.5337 323.071 32.7871 331.5 43.0207 331.5V328.5ZM100.811 328.5H43.0207V331.5H100.811V328.5ZM27.5337 102.219V43.2727H24.5337V102.219H27.5337ZM27.5337 43.2727C27.5337 34.538 34.4909 27.5 43.0207 27.5V24.5C32.7871 24.5 24.5337 32.9285 24.5337 43.2727H27.5337ZM43.0207 27.5H101.347V24.5H43.0207V27.5ZM100.28 24.9457L98.3039 26.9457L100.438 29.0543L102.414 27.0543L100.28 24.9457ZM43.0207 29.5H99.3708V26.5H43.0207V29.5ZM29.5337 43.2727C29.5337 35.6119 35.6259 29.5 43.0207 29.5V26.5C33.9239 26.5 26.5337 34.0005 26.5337 43.2727H29.5337ZM29.5337 100.195V43.2727H26.5337V100.195H29.5337ZM26.9667 99.1409L24.9667 101.165L27.1007 103.274L29.1007 101.249L26.9667 99.1409Z" fill="#E6E8EC"/>
</g>
<defs>
<filter id="filter0_d_1461_79745" x="0.533691" y="0.5" width="526.635" height="355" filterUnits="userSpaceOnUse" color-interpolation-filters="sRGB">
<feFlood flood-opacity="0" result="BackgroundImageFix"/>
<feColorMatrix in="SourceAlpha" type="matrix" values="0 0 0 0 0 0 0 0 0 0 0 0 0 0 0 0 0 0 127 0" result="hardAlpha"/>
<feOffset/>
<feGaussianBlur stdDeviation="12"/>
<feComposite in2="hardAlpha" operator="out"/>
<feColorMatrix type="matrix" values="0 0 0 0 1 0 0 0 0 1 0 0 0 0 1 0 0 0 1 0"/>
<feBlend mode="normal" in2="BackgroundImageFix" result="effect1_dropShadow_1461_79745"/>
<feBlend mode="normal" in="SourceGraphic" in2="effect1_dropShadow_1461_79745" result="shape"/>
</filter>
</defs>
</svg>
