<svg width="32" height="32" viewBox="0 0 32 32" fill="none" xmlns="http://www.w3.org/2000/svg">
<rect x="0.5" y="0.5" width="31" height="31" rx="7.5" fill="white"/>
<path d="M8 21.8501C8 24.9292 11.8913 25.7273 16.5 25.7273C21.0843 25.7273 25 24.9575 25 21.8772C25 18.7981 21.1098 18 16.5 18C11.9157 18 8 18.7698 8 21.8501Z" fill="url(#paint0_radial_2491_7954)"/>
<path d="M16.4091 16.8182C19.4121 16.8182 21.8182 14.4108 21.8182 11.4086C21.8182 8.40631 19.4121 6 16.4091 6C13.4071 6 11 8.40631 11 11.4086C11 14.4108 13.4071 16.8182 16.4091 16.8182Z" fill="url(#paint1_radial_2491_7954)"/>
<rect x="0.5" y="0.5" width="31" height="31" rx="7.5" stroke="#E6E8EC"/>
<defs>
<radialGradient id="paint0_radial_2491_7954" cx="0" cy="0" r="1" gradientUnits="userSpaceOnUse" gradientTransform="translate(16.5 21.8636) rotate(90) scale(3.86364 8.5)">
<stop stop-color="#878D9C"/>
<stop offset="1" stop-color="#6A7287"/>
</radialGradient>
<radialGradient id="paint1_radial_2491_7954" cx="0" cy="0" r="1" gradientUnits="userSpaceOnUse" gradientTransform="translate(16.4091 11.4091) rotate(90) scale(5.40909)">
<stop stop-color="#878D9C"/>
<stop offset="1" stop-color="#6A7287"/>
</radialGradient>
</defs>
</svg>
